<?xml version="1.0" encoding="UTF-8"?>
<svg xmlns="http://www.w3.org/2000/svg" xmlns:xlink="http://www.w3.org/1999/xlink" width="32pt" height="32pt" viewBox="0 0 32 32" version="1.1">
<g id="surface1">
<path style=" stroke:none;fill-rule:nonzero;fill:rgb(30.588235%,44.313725%,65.882353%);fill-opacity:1;" d="M 32 16 C 32 24.835938 24.835938 32 16 32 C 7.164062 32 0 24.835938 0 16 C 0 7.164062 7.164062 0 16 0 C 24.835938 0 32 7.164062 32 16 Z M 32 16 "/>
<path style=" stroke:none;fill-rule:nonzero;fill:rgb(100%,100%,100%);fill-opacity:1;" d="M 19.933594 13 L 17.265625 13 L 17.265625 11.265625 C 17.265625 10.601562 17.734375 10.464844 18 10.464844 C 18.332031 10.464844 19.867188 10.464844 19.867188 10.464844 L 19.867188 7.535156 L 17.265625 7.535156 C 14.332031 7.535156 13.734375 9.734375 13.734375 11.066406 L 13.734375 13 L 12.066406 13 L 12.066406 16 L 13.734375 16 C 13.734375 19.867188 13.734375 24.464844 13.734375 24.464844 L 17.265625 24.464844 C 17.265625 24.464844 17.265625 19.800781 17.265625 16 L 19.667969 16 Z M 19.933594 13 "/>
</g>
</svg>
