<?xml version="1.0" encoding="UTF-8"?>
<svg xmlns="http://www.w3.org/2000/svg" xmlns:xlink="http://www.w3.org/1999/xlink" width="32pt" height="32pt" viewBox="0 0 32 32" version="1.1">
<defs>
<radialGradient id="radial0" gradientUnits="userSpaceOnUse" cx="50.1582" cy="15.1047" fx="50.1582" fy="15.1047" r="684.4449" gradientTransform="matrix(0.003271,-0.0624125,0.05305,0.00278035,0.750019,31.175037)">
<stop offset="0" style="stop-color:rgb(99.607843%,83.529412%,46.27451%);stop-opacity:1;"/>
<stop offset="0.2634" style="stop-color:rgb(95.686275%,44.313725%,20%);stop-opacity:1;"/>
<stop offset="0.6091" style="stop-color:rgb(73.72549%,18.823529%,50.588235%);stop-opacity:1;"/>
<stop offset="1" style="stop-color:rgb(29.803922%,38.823529%,82.352941%);stop-opacity:1;"/>
</radialGradient>
</defs>
<g id="surface1">
<path style=" stroke:none;fill-rule:nonzero;fill:url(#radial0);" d="M 1.175781 15.632812 L 1.175781 16.429688 C 1.382812 24.082031 7.542969 30.226562 14.875 30.800781 L 17.132812 30.800781 C 24.507812 30.21875 30.5625 24.019531 30.761719 16.417969 L 30.761719 15.632812 C 30.5625 7.894531 24.292969 1.617188 16.742188 1.230469 C 8.617188 0.820312 1.398438 7.335938 1.175781 15.632812 Z M 1.175781 15.632812 "/>
<path style=" stroke:none;fill-rule:nonzero;fill:rgb(100%,100%,100%);fill-opacity:1;" d="M 16.039062 8.644531 C 18.394531 8.644531 18.675781 8.648438 19.605469 8.695312 C 20.46875 8.730469 20.929688 8.882812 21.242188 9 C 21.65625 9.164062 21.949219 9.355469 22.257812 9.667969 C 22.5625 9.980469 22.757812 10.28125 22.917969 10.699219 C 23.039062 11.019531 23.179688 11.492188 23.226562 12.367188 C 23.269531 13.320312 23.273438 13.601562 23.273438 16 C 23.273438 18.398438 23.269531 18.679688 23.226562 19.632812 C 23.1875 20.507812 23.042969 20.980469 22.917969 21.300781 C 22.757812 21.71875 22.570312 22.019531 22.257812 22.332031 C 21.949219 22.644531 21.65625 22.835938 21.242188 23 C 20.929688 23.125 20.460938 23.269531 19.605469 23.304688 C 18.675781 23.351562 18.394531 23.355469 16.039062 23.355469 C 13.679688 23.355469 13.398438 23.351562 12.46875 23.304688 C 11.605469 23.269531 11.144531 23.117188 10.832031 23 C 10.417969 22.835938 10.125 22.644531 9.820312 22.332031 C 9.511719 22.019531 9.320312 21.71875 9.15625 21.300781 C 9.039062 20.980469 8.894531 20.507812 8.851562 19.632812 C 8.804688 18.679688 8.800781 18.398438 8.800781 16 C 8.800781 13.601562 8.804688 13.320312 8.851562 12.367188 C 8.886719 11.492188 9.03125 11.019531 9.15625 10.699219 C 9.320312 10.28125 9.507812 9.980469 9.820312 9.667969 C 10.125 9.355469 10.417969 9.164062 10.832031 9 C 11.144531 8.875 11.613281 8.730469 12.46875 8.695312 C 13.398438 8.65625 13.679688 8.644531 16.039062 8.644531 M 16.039062 7.023438 C 13.636719 7.023438 13.335938 7.039062 12.398438 7.082031 C 11.460938 7.125 10.820312 7.273438 10.257812 7.5 C 9.675781 7.730469 9.179688 8.039062 8.695312 8.539062 C 8.199219 9.039062 7.898438 9.539062 7.675781 10.132812 C 7.457031 10.699219 7.304688 11.355469 7.261719 12.3125 C 7.21875 13.269531 7.210938 13.574219 7.210938 16.011719 C 7.210938 18.449219 7.226562 18.757812 7.261719 19.710938 C 7.304688 20.667969 7.457031 21.320312 7.675781 21.894531 C 7.898438 22.480469 8.199219 22.988281 8.695312 23.488281 C 9.1875 23.988281 9.675781 24.292969 10.257812 24.523438 C 10.820312 24.75 11.460938 24.898438 12.398438 24.945312 C 13.34375 24.988281 13.644531 25 16.039062 25 C 18.429688 25 18.738281 24.988281 19.675781 24.945312 C 20.613281 24.898438 21.257812 24.75 21.820312 24.523438 C 22.398438 24.292969 22.894531 23.988281 23.382812 23.488281 C 23.875 22.988281 24.175781 22.488281 24.398438 21.894531 C 24.617188 21.324219 24.769531 20.667969 24.8125 19.710938 C 24.855469 18.757812 24.863281 18.449219 24.863281 16.011719 C 24.863281 13.574219 24.851562 13.269531 24.8125 12.3125 C 24.769531 11.355469 24.617188 10.707031 24.398438 10.132812 C 24.175781 9.542969 23.875 9.039062 23.382812 8.539062 C 22.886719 8.039062 22.398438 7.730469 21.820312 7.5 C 21.257812 7.273438 20.613281 7.125 19.675781 7.082031 C 18.738281 7.039062 18.429688 7.023438 16.039062 7.023438 Z M 16.039062 7.023438 "/>
<path style=" stroke:none;fill-rule:nonzero;fill:rgb(100%,100%,100%);fill-opacity:1;" d="M 16.039062 11.394531 C 13.53125 11.394531 11.507812 13.457031 11.507812 16.007812 C 11.507812 18.554688 13.539062 20.617188 16.039062 20.617188 C 18.539062 20.617188 20.570312 18.554688 20.570312 16.007812 C 20.570312 13.457031 18.539062 11.394531 16.039062 11.394531 Z M 16.039062 19 C 14.414062 19 13.09375 17.664062 13.09375 16.007812 C 13.09375 14.351562 14.414062 13.011719 16.039062 13.011719 C 17.664062 13.011719 18.980469 14.351562 18.980469 16.007812 C 18.980469 17.664062 17.664062 19 16.039062 19 Z M 16.039062 19 "/>
<path style=" stroke:none;fill-rule:nonzero;fill:rgb(100%,100%,100%);fill-opacity:1;" d="M 21.804688 11.210938 C 21.804688 10.617188 21.332031 10.136719 20.75 10.136719 C 20.167969 10.136719 19.695312 10.617188 19.695312 11.210938 C 19.695312 11.804688 20.167969 12.289062 20.75 12.289062 C 21.332031 12.289062 21.804688 11.804688 21.804688 11.210938 Z M 21.804688 11.210938 "/>
</g>
</svg>
