<?xml version="1.0" encoding="UTF-8"?>
<svg xmlns="http://www.w3.org/2000/svg" xmlns:xlink="http://www.w3.org/1999/xlink" width="32pt" height="32pt" viewBox="0 0 32 32" version="1.1">
<g id="surface1">
<path style=" stroke:none;fill-rule:nonzero;fill:rgb(0%,89.803922%,41.960784%);fill-opacity:1;" d="M 30.398438 16 C 30.398438 23.953125 23.953125 30.398438 16 30.398438 C 8.046875 30.398438 1.601562 23.953125 1.601562 16 C 1.601562 8.046875 8.046875 1.601562 16 1.601562 C 23.953125 1.601562 30.398438 8.046875 30.398438 16 Z M 30.398438 16 "/>
<path style=" stroke:none;fill-rule:nonzero;fill:rgb(100%,100%,100%);fill-opacity:1;" d="M 13.769531 21.199219 C 13.769531 21.578125 13.492188 21.75 13.152344 21.582031 L 9.679688 19.84375 C 9.476562 19.742188 9.308594 19.472656 9.308594 19.246094 L 9.308594 10.734375 C 9.308594 10.433594 9.53125 10.292969 9.804688 10.429688 L 13.746094 12.402344 C 13.761719 12.410156 13.769531 12.421875 13.769531 12.441406 Z M 13.769531 21.199219 "/>
<path style=" stroke:none;fill-rule:nonzero;fill:rgb(100%,100%,100%);fill-opacity:1;" d="M 14.070312 12.96875 L 14.070312 17.609375 L 18.199219 19.675781 Z M 14.070312 12.96875 "/>
<path style=" stroke:none;fill-rule:nonzero;fill:rgb(100%,100%,100%);fill-opacity:1;" d="M 22.640625 12.417969 L 18.601562 10.398438 C 18.394531 10.296875 18.132812 10.371094 18.011719 10.566406 L 15.464844 14.707031 L 18.378906 19.445312 L 22.660156 12.492188 C 22.675781 12.464844 22.667969 12.433594 22.640625 12.417969 Z M 22.640625 12.417969 "/>
<path style=" stroke:none;fill-rule:nonzero;fill:rgb(100%,100%,100%);fill-opacity:1;" d="M 18.230469 19.613281 L 18.230469 19.660156 L 18.273438 19.679688 Z M 18.230469 19.613281 "/>
<path style=" stroke:none;fill-rule:nonzero;fill:rgb(100%,100%,100%);fill-opacity:1;" d="M 18.527344 19.808594 L 21.949219 21.519531 C 22.355469 21.722656 22.6875 21.582031 22.6875 21.199219 L 22.6875 13.042969 Z M 18.527344 19.808594 "/>
</g>
</svg>
