<?xml version="1.0" encoding="UTF-8"?>
<svg xmlns="http://www.w3.org/2000/svg" xmlns:xlink="http://www.w3.org/1999/xlink" width="32pt" height="32pt" viewBox="0 0 32 32" version="1.1">
<g id="surface1">
<path style=" stroke:none;fill-rule:nonzero;fill:rgb(74.117647%,3.137255%,10.980392%);fill-opacity:1;" d="M 32 16 C 32 24.835938 24.835938 32 16 32 C 7.164062 32 0 24.835938 0 16 C 0 7.164062 7.164062 0 16 0 C 24.835938 0 32 7.164062 32 16 Z M 32 16 "/>
<path style=" stroke:none;fill-rule:nonzero;fill:rgb(100%,100%,100%);fill-opacity:1;" d="M 17.550781 20.199219 C 16.367188 20.199219 15.261719 19.5625 14.886719 18.835938 C 14.886719 18.835938 14.257812 21.351562 14.117188 21.835938 C 13.644531 23.550781 12.257812 25.269531 12.148438 25.40625 C 12.074219 25.507812 11.90625 25.476562 11.894531 25.34375 C 11.863281 25.125 11.511719 22.960938 11.925781 21.199219 C 12.132812 20.3125 13.332031 15.257812 13.332031 15.257812 C 13.332031 15.257812 12.980469 14.5625 12.980469 13.53125 C 12.980469 11.914062 13.917969 10.707031 15.085938 10.707031 C 16.082031 10.707031 16.554688 11.449219 16.554688 12.34375 C 16.554688 13.34375 15.917969 14.832031 15.59375 16.210938 C 15.320312 17.367188 16.175781 18.3125 17.3125 18.3125 C 19.382812 18.3125 20.769531 15.65625 20.769531 12.511719 C 20.769531 10.117188 19.15625 8.332031 16.230469 8.332031 C 12.925781 8.332031 10.855469 10.800781 10.855469 13.554688 C 10.855469 14.507812 11.136719 15.175781 11.574219 15.695312 C 11.773438 15.929688 11.804688 16.03125 11.730469 16.300781 C 11.675781 16.5 11.554688 16.988281 11.507812 17.175781 C 11.429688 17.449219 11.207031 17.550781 10.957031 17.449219 C 9.429688 16.832031 8.726562 15.15625 8.726562 13.28125 C 8.726562 10.179688 11.335938 6.46875 16.523438 6.46875 C 20.695312 6.46875 23.429688 9.480469 23.429688 12.71875 C 23.4375 17.007812 21.054688 20.199219 17.550781 20.199219 Z M 17.550781 20.199219 "/>
</g>
</svg>
