<?xml version="1.0" encoding="UTF-8"?>
<svg xmlns="http://www.w3.org/2000/svg" xmlns:xlink="http://www.w3.org/1999/xlink" width="32pt" height="32pt" viewBox="0 0 32 32" version="1.1">
<g id="surface1">
<path style=" stroke:none;fill-rule:evenodd;fill:rgb(20.392157%,42.745098%,65.098039%);fill-opacity:1;" d="M 16 32 C 24.835938 32 32 24.835938 32 16 C 32 7.164062 24.835938 0 16 0 C 7.164062 0 0 7.164062 0 16 C 0 24.835938 7.164062 32 16 32 Z M 16 32 "/>
<path style=" stroke:none;fill-rule:evenodd;fill:rgb(100%,100%,100%);fill-opacity:1;" d="M 7.265625 11.210938 C 8.910156 8.152344 12.207031 6.152344 16.007812 6.152344 C 18.46875 6.152344 20.71875 7.199219 22.445312 8.675781 C 21.949219 8.578125 21.414062 8.6875 20.871094 8.996094 C 19.601562 9.722656 19.183594 11.777344 20.832031 12.808594 C 21.859375 13.449219 22.226562 15.054688 22.191406 16.035156 C 22.15625 17.015625 19.800781 21.523438 19.800781 21.523438 L 17.503906 13.667969 C 17.503906 13.667969 17.425781 13.117188 17.425781 12.957031 C 17.425781 12.757812 17.492188 12.511719 17.617188 12.371094 C 17.703125 12.277344 17.832031 12.082031 17.988281 12.082031 L 19.074219 12.082031 L 19.074219 11.210938 L 13.160156 11.210938 L 13.160156 12.082031 L 13.34375 12.082031 C 13.539062 12.082031 13.726562 12.34375 13.910156 12.527344 C 14.125 12.75 14.398438 13.585938 14.726562 14.453125 L 15.585938 17.277344 L 13.734375 21.546875 L 11.703125 13.015625 C 11.703125 13.015625 11.761719 12.429688 11.882812 12.332031 C 11.964844 12.261719 12.085938 12.082031 12.230469 12.082031 L 12.285156 12.082031 L 12.285156 11.210938 Z M 8.425781 12.691406 C 8.425781 12.691406 7.949219 12.082031 7.441406 12.082031 L 6.925781 12.082031 C 6.429688 13.175781 6.152344 14.640625 6.152344 15.984375 C 6.152344 20.027344 8.640625 23.492188 12.183594 24.96875 Z M 24.488281 11.132812 C 24.675781 12.015625 24.636719 13.089844 24.273438 14.273438 C 23.320312 17.347656 20.960938 22.882812 20.046875 24.988281 C 23.476562 23.464844 25.863281 20.058594 25.863281 16.097656 C 25.863281 14.285156 25.359375 12.585938 24.488281 11.132812 Z M 16.207031 19.4375 L 13.6875 25.570312 C 14.433594 25.75 15.207031 25.847656 16.007812 25.847656 C 16.835938 25.847656 17.640625 25.742188 18.410156 25.554688 Z M 16.207031 19.4375 "/>
</g>
</svg>
