<?xml version="1.0" encoding="UTF-8"?>
<svg xmlns="http://www.w3.org/2000/svg" xmlns:xlink="http://www.w3.org/1999/xlink" width="32pt" height="32pt" viewBox="0 0 32 32" version="1.1">
<g id="surface1">
<path style=" stroke:none;fill-rule:nonzero;fill:rgb(79.215686%,21.568627%,21.568627%);fill-opacity:1;" d="M 32 16 C 32 24.835938 24.835938 32 16 32 C 7.164062 32 0 24.835938 0 16 C 0 7.164062 7.164062 0 16 0 C 24.835938 0 32 7.164062 32 16 Z M 32 16 "/>
<path style=" stroke:none;fill-rule:nonzero;fill:rgb(100%,100%,100%);fill-opacity:1;" d="M 23.464844 12.332031 C 23.464844 12.265625 23.464844 12.199219 23.398438 12.132812 C 23.398438 12.132812 23.398438 12.066406 23.398438 12.066406 C 23.199219 11.464844 22.667969 11.066406 22 11.066406 L 22.132812 11.066406 C 22.132812 11.066406 19.535156 10.667969 16 10.667969 C 12.535156 10.667969 9.867188 11.066406 9.867188 11.066406 L 10 11.066406 C 9.332031 11.066406 8.800781 11.464844 8.601562 12.066406 C 8.601562 12.066406 8.601562 12.132812 8.601562 12.132812 C 8.601562 12.199219 8.601562 12.265625 8.535156 12.332031 C 8.464844 13 8.265625 14.398438 8.265625 16 C 8.265625 17.601562 8.464844 19 8.535156 19.667969 C 8.535156 19.734375 8.535156 19.800781 8.601562 19.867188 C 8.601562 19.867188 8.601562 19.933594 8.601562 19.933594 C 8.800781 20.535156 9.332031 20.933594 10 20.933594 L 9.867188 20.933594 C 9.867188 20.933594 12.464844 21.332031 16 21.332031 C 19.464844 21.332031 22.132812 20.933594 22.132812 20.933594 L 22 20.933594 C 22.667969 20.933594 23.199219 20.535156 23.398438 19.933594 C 23.398438 19.933594 23.398438 19.867188 23.398438 19.867188 C 23.398438 19.800781 23.398438 19.734375 23.464844 19.667969 C 23.535156 19 23.734375 17.601562 23.734375 16 C 23.734375 14.398438 23.601562 13 23.464844 12.332031 Z M 18.265625 16.332031 L 15.132812 18.601562 C 15.066406 18.667969 15 18.667969 14.933594 18.667969 C 14.867188 18.667969 14.800781 18.667969 14.734375 18.601562 C 14.601562 18.535156 14.535156 18.398438 14.535156 18.265625 L 14.535156 13.734375 C 14.535156 13.601562 14.601562 13.464844 14.734375 13.398438 C 14.867188 13.332031 15 13.332031 15.132812 13.398438 L 18.265625 15.667969 C 18.332031 15.734375 18.398438 15.867188 18.398438 16 C 18.464844 16.132812 18.398438 16.265625 18.265625 16.332031 Z M 18.265625 16.332031 "/>
</g>
</svg>
