<?xml version="1.0" encoding="utf-8"?>
<!-- Generator: Adobe Illustrator 17.0.0, SVG Export Plug-In . SVG Version: 6.00 Build 0)  -->
<!DOCTYPE svg PUBLIC "-//W3C//DTD SVG 1.1//EN" "http://www.w3.org/Graphics/SVG/1.1/DTD/svg11.dtd">
<svg version="1.1" id="Layer_1" xmlns="http://www.w3.org/2000/svg" xmlns:xlink="http://www.w3.org/1999/xlink" x="0px" y="0px"
	 width="300px" height="300px" viewBox="0 0 300 300" enable-background="new 0 0 300 300" xml:space="preserve">
<g>
	<path fill="#010101" d="M117.882,137.773c-5.932,0-7.883,2.177-8.475,4.001c-0.594,1.826-0.293,4.733,4.506,8.218
		c4.816,3.497,7.329,11.234,5.49,16.893c-1.197,3.687-1.133,6.48,0.19,8.298c1.89,2.601,5.706,2.527,10.204-0.743
		c2.296-1.669,5.534-2.625,8.884-2.625c3.35,0,6.588,0.958,8.882,2.622c2.399,1.743,4.539,2.626,6.363,2.626l0,0
		c1.595,0,2.961-0.669,3.842-1.882c1.325-1.822,1.388-4.611,0.192-8.296c-1.838-5.659,0.675-13.399,5.488-16.896
		c4.797-3.485,5.098-6.394,4.506-8.218c-0.592-1.824-2.544-4.001-8.475-4.001c-5.952,0-12.532-4.782-14.37-10.444
		c-1.835-5.641-4.506-6.825-6.425-6.825s-4.592,1.185-6.425,6.825C130.416,132.99,123.834,137.773,117.882,137.773z
		 M137.161,128.923c0.613-1.888,1.201-2.734,1.518-3.084c0.318,0.351,0.906,1.198,1.521,3.084
		c2.509,7.725,11.156,14.007,19.276,14.007c1.985,0,2.971,0.299,3.403,0.491c-0.236,0.411-0.858,1.232-2.464,2.398
		c-6.567,4.775-9.871,14.939-7.361,22.66c0.613,1.89,0.634,2.921,0.582,3.392c-0.452-0.097-1.432-0.433-3.042-1.601
		c-3.204-2.33-7.436-3.611-11.915-3.611c-4.479,0-8.711,1.281-11.915,3.609c-1.59,1.157-2.569,1.5-3.042,1.599
		c-0.05-0.473-0.027-1.504,0.586-3.388c2.509-7.722-0.794-17.888-7.366-22.66c-1.603-1.166-2.228-1.987-2.464-2.398
		c0.432-0.194,1.419-0.491,3.403-0.491C126.003,142.931,134.652,136.648,137.161,128.923z"/>
	<path fill="#010101" d="M187.45,226.699v-32.924H90.945v32.923h96.505L187.45,226.699L187.45,226.699z M96.103,198.932h86.189
		v22.607H96.103V198.932z"/>
	<path fill="#010101" d="M242.981,85.154l-29.784-6.827V65.811H64.788v178.994h148.408v-2.333L242.981,85.154z M236.989,89.072
		l-23.79,125.666V83.617L236.989,89.072z M69.946,70.969h5.504v168.678h-5.504V70.969z M208.04,239.647H80.61V70.969H208.04V239.647
		z"/>
	<rect x="136.098" y="86.86" fill="#010101" width="5.158" height="23.939"/>
	
		<rect x="108.26" y="104.717" transform="matrix(0.7071 0.7071 -0.7071 0.7071 111.084 -53.5891)" fill="#010101" width="23.939" height="5.158"/>
	
		<rect x="99.789" y="120.5" transform="matrix(0.9101 0.4145 -0.4145 0.9101 61.0659 -35.253)" fill="#010101" width="23.944" height="5.158"/>
	
		<rect x="154.05" y="120.508" transform="matrix(-0.91 0.4146 -0.4146 -0.91 368.1293 166.2663)" fill="#010101" width="23.937" height="5.16"/>
	
		<rect x="154.566" y="95.328" transform="matrix(0.7071 0.7071 -0.7071 0.7071 121.8972 -79.6917)" fill="#010101" width="5.158" height="23.939"/>
</g>
</svg>
