<?xml version="1.0" encoding="utf-8"?>
<!-- Generator: Adobe Illustrator 17.0.0, SVG Export Plug-In . SVG Version: 6.00 Build 0)  -->
<!DOCTYPE svg PUBLIC "-//W3C//DTD SVG 1.1//EN" "http://www.w3.org/Graphics/SVG/1.1/DTD/svg11.dtd">
<svg version="1.1" id="Layer_1" xmlns="http://www.w3.org/2000/svg" xmlns:xlink="http://www.w3.org/1999/xlink" x="0px" y="0px"
	 width="300px" height="300px" viewBox="0 0 300 300" enable-background="new 0 0 300 300" xml:space="preserve">
<path fill="#FFFFFF" d="M76.657,165.64c0.523,7.36,3.429,30.382,19.571,36.09c10.099,3.576,16.163,11.688,15.264,16.728
	c-0.711,4.015-5.855,4.516-8.824,4.516c-6.796-0.125-11.187,1.631-13.173,5.06c-2.823,4.851,0.669,10.936,0.815,11.187
	c0.371,0.643,1.056,1.041,1.798,1.045h21.976c0.215,0.034,0.434,0.034,0.648,0c10.455-3.408,19.488-23.001,23.879-34.208
	c1.844,5.443,4.823,10.432,8.74,14.637c-1.8-0.383-3.637-0.565-5.478-0.544c-6.273,0.314-10.455,2.3-12.546,5.897
	c-3.157,5.625,0.648,12.776,0.815,13.089c0.368,0.673,1.074,1.089,1.84,1.087h82.154c0.272,0,28.123-1.673,29.692-27.182
	c0.502-8.197-1.401-13.968-5.687-17.167c-3.854-2.493-8.558-3.309-13.027-2.258c0.376-3.602,0.2-7.241-0.523-10.789
	c-14.637-62.018-52.88-54.072-78.118-48.803c-4.182,0.878-8.113,1.694-11.563,2.091c-10.685,1.359-14.909-0.753-16.56-2.76
	c-0.971-1.293-1.406-2.911-1.213-4.516c24.736-0.167,44.956-14.637,55.64-40.084c0.448-1.065-0.052-2.29-1.117-2.738
	c-0.079-0.033-0.159-0.062-0.242-0.085c-3.194-0.872-6.464-1.439-9.765-1.694c1.174-3.366,1.313-7.008,0.397-10.455
	c-0.277-0.752-0.959-1.28-1.756-1.359c-48.301-3.91-67.998,24.36-75.525,42.007c-5.269,0.335-16.728,1.694-18.819,10.455
	c-0.711,2.781-4.726,7.109-8.259,10.936c-5.206,5.646-10.058,10.894-9.388,15.327C51.064,165.786,70.029,166.037,76.657,165.64z
	 M60.703,138.75c4.182-4.579,8.259-8.928,9.221-12.734c1.15-4.516,6.524-6.963,16.372-7.486c0.788-0.045,1.484-0.531,1.798-1.255
	l0.314-0.753c6.837-16.351,25.091-43.074,70.005-40.063c0.153,2.557-0.216,5.118-1.087,7.527
	c-35.274-0.23-63.001,34.835-64.297,36.529c-0.71,0.912-0.546,2.228,0.366,2.938c0.912,0.71,2.228,0.546,2.938-0.366l0,0
	c0.335-0.439,33.455-42.467,71.573-33.685c-10.455,23.001-29.482,35.839-52.483,35.295c-0.937-0.049-1.792,0.532-2.091,1.422
	c-1.075,3.377-0.461,7.066,1.652,9.911c3.366,4.182,10.225,5.583,20.366,4.286c3.617-0.46,7.632-1.296,11.877-2.091
	c25.091-5.227,59.404-12.399,73.183,45.625c0.775,3.97,0.775,8.053,0,12.023l-7.611,16.456c-0.427,1.092,0.111,2.323,1.202,2.75
	s2.323-0.111,2.75-1.202l7.318-15.829c2.091-0.585,7.799-1.798,11.626,1.066c3.053,2.3,4.412,6.837,3.994,13.528
	c-1.38,21.934-24.757,23.419-25.656,23.461h-80.69c-0.732-1.777-1.819-5.332-0.355-7.967c1.275-2.237,4.328-3.513,9.075-3.743
	c5.042-0.04,9.983,1.416,14.198,4.182l0.251,0.167c0.989,0.596,2.274,0.278,2.871-0.711c0.537-0.89,0.338-2.039-0.466-2.697
	l-0.251-0.167c-1.903-1.359-17.376-12.901-17.146-27.642c0.131-4.354,1.478-8.584,3.889-12.211
	c13.591-21.411,36.634-10.789,37.637-10.329c1.075,0.423,2.289-0.107,2.71-1.182c0.38-0.968-0.009-2.067-0.912-2.581
	c-0.272-0.125-27.35-12.713-42.948,11.856c-2.791,4.183-4.381,9.049-4.6,14.072c-3.22,9.869-13.424,35.212-23.628,38.955H93.385
	c-0.954-1.85-1.069-4.02-0.314-5.959c1.129-1.965,4.307-2.99,9.158-2.99h0.648c10.183,0,12.274-5.562,12.692-7.967
	c1.38-7.799-6.691-17.397-17.982-21.39c-16.142-5.729-16.874-34.104-16.874-34.459c0.009-1.154-0.921-2.098-2.076-2.106
	c-0.089-0.001-0.178,0.004-0.266,0.015c-0.23,0-23.398,2.739-25.949-10.789C52.068,148.097,57.044,142.786,60.703,138.75z"/>
<path fill="#FFFFFF" d="M109.778,120.057c0.518-0.002,1.018-0.195,1.401-0.544c0.272-0.251,26.932-23.941,46.315-21.955
	c1.148,0.122,2.178-0.71,2.3-1.858c0-0.001,0-0.002,0-0.003c0.122-1.148-0.71-2.178-1.859-2.3c-0.001,0-0.002,0-0.003,0
	c-21.265-2.091-48.385,21.976-49.535,23.001c-0.855,0.777-0.917,2.099-0.141,2.953c0.395,0.435,0.955,0.683,1.542,0.685
	L109.778,120.057z"/>
<circle fill="#FFFFFF" cx="81.007" cy="134.861" r="3.22"/>
<path fill="#FFFFFF" d="M163.829,145.985c0.188,0,18.421-3.387,28.186,3.638c9.765,7.026,13.278,19.613,13.319,19.76
	c0.253,0.939,1.119,1.58,2.091,1.547c0.18,0.024,0.363,0.024,0.544,0c1.113-0.296,1.776-1.437,1.485-2.551
	c-0.146-0.565-3.806-14.051-14.909-22.08s-30.591-4.516-31.364-4.37c-1.154,0.213-1.918,1.323-1.704,2.478
	c0.213,1.154,1.323,1.918,2.478,1.704L163.829,145.985z"/>
</svg>
