<?xml version="1.0" encoding="utf-8"?>
<!-- Generator: Adobe Illustrator 17.0.0, SVG Export Plug-In . SVG Version: 6.00 Build 0)  -->
<!DOCTYPE svg PUBLIC "-//W3C//DTD SVG 1.1//EN" "http://www.w3.org/Graphics/SVG/1.1/DTD/svg11.dtd">
<svg version="1.1" id="Layer_1" xmlns="http://www.w3.org/2000/svg" xmlns:xlink="http://www.w3.org/1999/xlink" x="0px" y="0px"
	 width="300px" height="300px" viewBox="0 0 300 300" enable-background="new 0 0 300 300" xml:space="preserve">
<g>
	<path fill="#010101" d="M78.63,229.119c-6.397,0-11.881,5.483-11.881,11.881v0.609c0,6.397,5.483,11.881,11.881,11.881h140.739
		c6.702,0,11.881-5.483,11.881-11.881V241c0-6.702-5.483-11.881-11.881-11.881h-3.351V82.897h3.351
		c6.397,0,11.881-5.483,11.881-11.881v-0.609c0-6.397-5.483-11.881-11.881-11.881H78.63c-6.397,0-11.881,5.483-11.881,11.881v0.609
		c0,6.397,5.483,11.881,11.881,11.881h3.351v146.222H78.63z M225.156,241v0.609c0,3.046-2.742,5.788-5.788,5.788H78.63
		c-3.046,0-5.788-2.742-5.788-5.788V241c0-3.046,2.742-5.788,5.788-5.788h18.582h103.574h18.582
		C222.415,235.212,225.156,237.953,225.156,241z M111.225,148.697c-4.874-3.96-7.92-10.053-7.92-16.45v-49.35h91.389v50.873
		c0,5.788-2.132,10.967-6.093,14.927l-7.311,7.311l7.311,7.311c3.96,3.96,6.093,9.444,6.093,14.927v50.873h-91.389v-49.35
		c0-6.397,3.046-12.49,7.92-16.45l9.139-7.311L111.225,148.697z M209.925,229.119h-9.139v-50.873c0-7.311-2.742-14.013-7.92-19.192
		l-3.047-3.046l3.046-3.046c5.179-5.179,7.92-11.881,7.92-19.192V82.897h9.139L209.925,229.119L209.925,229.119z M72.842,71.016
		v-0.609c0-3.046,2.742-5.788,5.788-5.788h140.739c3.046,0,5.788,2.742,5.788,5.788v0.609c0,3.046-2.742,5.788-5.788,5.788h-18.582
		H97.212H78.63C75.583,76.804,72.842,74.063,72.842,71.016z M88.073,82.897h9.139v49.35c0,8.225,3.656,16.145,10.357,21.324
		l3.046,2.437l-3.046,2.437c-6.397,5.179-10.357,13.099-10.357,21.324v49.35h-9.139V82.897z"/>
	<path fill="#010101" d="M145.953,165.147v3.046h6.093v-3.046h4.265l32.291-29.244v-31.682h-79.204v35.032l32.291,25.894
		L145.953,165.147L145.953,165.147z M115.49,110.314h54.833v3.046h6.093v-3.046h6.093v23.152l-28.635,25.589h-10.053l-28.331-22.847
		V110.314z"/>
	<path fill="#010101" d="M109.397,226.073h79.204v-16.755l-32.291-25.894h-4.265v-3.046h-6.093v3.046h-4.265l-32.291,29.244v13.405
		H109.397z M115.49,215.106l28.635-25.589h10.053l28.635,22.847v7.616H115.49V215.106z"/>
	<rect x="145.953" y="171.239" fill="#010101" width="6.093" height="6.093"/>
	<rect x="170.323" y="125.545" fill="#010101" width="6.093" height="6.093"/>
	<rect x="170.323" y="116.406" fill="#010101" width="6.093" height="6.093"/>
</g>
</svg>
