<?xml version="1.0" encoding="utf-8"?>
<!-- Generator: Adobe Illustrator 17.0.0, SVG Export Plug-In . SVG Version: 6.00 Build 0)  -->
<!DOCTYPE svg PUBLIC "-//W3C//DTD SVG 1.1//EN" "http://www.w3.org/Graphics/SVG/1.1/DTD/svg11.dtd">
<svg version="1.1" id="Layer_1" xmlns="http://www.w3.org/2000/svg" xmlns:xlink="http://www.w3.org/1999/xlink" x="0px" y="0px"
	 width="300px" height="300px" viewBox="0 0 300 300" enable-background="new 0 0 300 300" xml:space="preserve">
<g>
	<path fill="#FFFFFF" d="M146.451,259.009c-13.394,0-24.288-10.892-24.288-24.288V123.97h-6.725v-20.929h62.027v20.929h-6.727
		v110.751C170.737,248.115,159.843,259.009,146.451,259.009z M121.416,117.992h6.727v116.729c0,10.094,8.22,18.31,18.308,18.31
		c10.099,0,18.308-8.216,18.308-18.31V117.992h6.727v-8.975h-50.07L121.416,117.992L121.416,117.992z"/>
</g>
<g>
	<rect x="125.153" y="157.924" fill="#FFFFFF" width="39.736" height="5.978"/>
</g>
<g>
	<rect x="152.43" y="220.201" fill="#FFFFFF" width="5.978" height="6.475"/>
</g>
<g>
	<rect x="152.43" y="175.364" fill="#FFFFFF" width="5.978" height="34.375"/>
</g>
<g>
	<rect x="121.789" y="117.992" fill="#FFFFFF" width="18.683" height="5.978"/>
</g>
<g>
	<path fill="#FFFFFF" d="M149.066,98.835c-4.459,0-8.092-3.632-8.092-8.098c0-4.459,3.632-8.092,8.092-8.092s8.09,3.632,8.09,8.092
		C157.156,95.204,153.525,98.835,149.066,98.835z M149.066,88.625c-1.167,0-2.113,0.945-2.113,2.113s0.945,2.12,2.113,2.12
		s2.113-0.951,2.113-2.12C151.179,89.569,150.233,88.625,149.066,88.625z"/>
</g>
<g>
	<path fill="#FFFFFF" d="M168.496,81.649c-8.851,0-16.066-7.211-16.066-16.066c0-8.857,7.215-16.066,16.066-16.066
		c8.862,0,16.066,7.209,16.066,16.066C184.562,74.437,177.358,81.649,168.496,81.649z M168.496,55.491
		c-5.556,0-10.088,4.526-10.088,10.088s4.532,10.088,10.088,10.088c5.568,0,10.088-4.526,10.088-10.088
		C178.584,60.016,174.064,55.491,168.496,55.491z"/>
</g>
</svg>
