<?xml version="1.0" encoding="utf-8"?>
<!-- Generator: Adobe Illustrator 17.0.0, SVG Export Plug-In . SVG Version: 6.00 Build 0)  -->
<!DOCTYPE svg PUBLIC "-//W3C//DTD SVG 1.1//EN" "http://www.w3.org/Graphics/SVG/1.1/DTD/svg11.dtd">
<svg version="1.1" id="Layer_1" xmlns="http://www.w3.org/2000/svg" xmlns:xlink="http://www.w3.org/1999/xlink" x="0px" y="0px"
	 width="300px" height="300px" viewBox="0 0 300 300" enable-background="new 0 0 300 300" xml:space="preserve">
<g>
	<g>
		<path fill="#020202" d="M94.767,218.67h-0.291c4.942-3.197,8.43-8.721,8.43-15.116c0-9.884-8.139-18.023-18.023-18.023
			s-18.023,8.139-18.023,18.023c0,6.396,3.488,11.919,8.43,15.116h-0.872c-11.337,0-20.349,9.302-20.349,20.349v9.011
			c0,1.744,1.163,2.907,2.907,2.907h55.233c1.744,0,2.907-1.163,2.907-2.907v-9.011C115.116,227.972,106.105,218.67,94.767,218.67z
			 M84.884,191.345c6.686,0,12.21,5.523,12.21,12.21c0,6.686-5.523,12.21-12.21,12.21s-12.21-5.523-12.21-12.21
			C72.674,196.868,78.198,191.345,84.884,191.345z M109.302,245.124H59.884v-6.105c0-8.139,6.686-14.535,14.535-14.535h20.349
			c8.139,0,14.535,6.686,14.535,14.535V245.124z"/>
	</g>
	<g>
		<path fill="#020202" d="M160.174,218.67h-0.291c4.942-3.197,8.43-8.721,8.43-15.116c0-9.884-8.139-18.023-18.023-18.023
			c-9.884,0-18.023,8.139-18.023,18.023c0,6.396,3.488,11.919,8.43,15.116h-0.872c-11.337,0-20.349,9.302-20.349,20.349v9.011
			c0,1.744,1.163,2.907,2.907,2.907h55.233c1.744,0,2.907-1.163,2.907-2.907v-9.011C180.523,227.972,171.512,218.67,160.174,218.67z
			 M150.291,191.345c6.686,0,12.21,5.523,12.21,12.21c0,6.686-5.523,12.21-12.21,12.21c-6.686,0-12.21-5.523-12.21-12.21
			C138.081,196.868,143.604,191.345,150.291,191.345z M174.709,245.124h-49.419v-6.105c0-8.139,6.686-14.535,14.535-14.535h20.349
			c8.139,0,14.535,6.686,14.535,14.535V245.124z"/>
	</g>
	<g>
		<path fill="#020202" d="M225.581,218.67h-0.291c4.942-3.197,8.43-8.721,8.43-15.116c0-9.884-8.139-18.023-18.023-18.023
			c-9.884,0-18.023,8.139-18.023,18.023c0,6.396,3.488,11.919,8.43,15.116h-0.872c-11.337,0-20.349,9.302-20.349,20.349v9.011
			c0,1.744,1.163,2.907,2.907,2.907h55.233c1.744,0,2.907-1.163,2.907-2.907v-9.011C245.93,227.972,236.627,218.67,225.581,218.67z
			 M215.698,191.345c6.686,0,12.21,5.523,12.21,12.21c0,6.686-5.523,12.21-12.21,12.21c-6.686,0-12.21-5.523-12.21-12.21
			C203.488,196.868,208.721,191.345,215.698,191.345z M240.116,245.124h-49.419v-6.105c0-8.139,6.686-14.535,14.535-14.535h20.349
			c8.139,0,14.535,6.686,14.535,14.535V245.124z"/>
	</g>
	<g>
		<path fill="#020202" d="M94.767,178.845c0.581,0.581,1.454,0.872,2.035,0.872h13.372c1.744,0,2.907-1.163,2.907-2.907
			c0-1.744-1.163-2.907-2.907-2.907h-6.105l29.36-29.651c4.36,1.454,9.011,2.616,13.953,2.616v21.221l-4.36-4.36
			c-1.163-1.163-2.907-1.163-4.07,0c-1.163,1.163-1.163,2.907,0,4.07l9.302,9.302c1.163,1.163,2.907,1.163,4.07,0l0,0l9.302-9.302
			c1.163-1.163,1.163-2.907,0-4.07c-1.163-1.163-2.907-1.163-4.07,0l-4.651,4.36v-21.512c4.651-0.581,8.721-1.744,12.79-3.488
			l30.523,30.523h-6.105c-1.744,0-2.907,1.163-2.907,2.907c0,1.744,1.163,2.907,2.907,2.907h13.372c0.581,0,1.454-0.291,2.035-0.872
			l0,0c0.581-0.581,0.872-1.454,0.872-2.035l0,0v-12.79c0-1.744-1.163-2.907-2.907-2.907s-2.907,1.163-2.907,2.907v6.105
			l-29.36-29.36c13.663-8.43,20.93-22.674,20.93-37.5c0-24.128-19.767-43.895-44.186-43.895s-43.895,19.767-43.895,43.895
			c0,16.279,9.302,31.105,23.256,38.663l-27.907,27.907v-5.814c0-1.744-1.163-2.907-2.907-2.907s-2.907,1.163-2.907,2.907v13.081
			l0,0C93.895,177.682,94.477,178.845,94.767,178.845z M148.255,102.682c-7.268,0-13.081-5.814-13.081-13.081
			c0-7.267,5.814-13.081,13.081-13.081c7.267,0,13.081,5.814,13.081,13.081C161.337,96.868,155.523,102.682,148.255,102.682z
			 M154.36,111.694c10.756,0,19.477,8.43,20.058,18.895c-6.977,6.686-15.989,10.465-26.454,10.465
			c-10.174,0-19.477-4.07-26.454-10.465c0.581-10.465,9.302-18.895,20.058-18.895H154.36z M147.965,64.891
			c20.93,0,38.081,17.152,38.081,38.081c0,8.139-2.616,15.698-6.977,21.803c-2.907-9.884-11.337-17.441-21.803-18.895
			c5.814-3.197,9.593-9.302,9.593-16.279c0-10.465-8.43-18.895-18.895-18.895c-10.465,0-18.895,8.43-18.895,18.895
			c0,6.977,3.779,13.081,9.593,16.279c-10.756,1.163-19.477,8.721-22.093,18.895c-4.36-6.105-6.977-13.663-6.977-21.803
			C109.884,82.043,127.035,64.891,147.965,64.891z"/>
	</g>
</g>
</svg>
