<?xml version="1.0" encoding="utf-8"?>
<!-- Generator: Adobe Illustrator 17.0.0, SVG Export Plug-In . SVG Version: 6.00 Build 0)  -->
<!DOCTYPE svg PUBLIC "-//W3C//DTD SVG 1.1//EN" "http://www.w3.org/Graphics/SVG/1.1/DTD/svg11.dtd">
<svg version="1.1" id="Layer_1" xmlns="http://www.w3.org/2000/svg" xmlns:xlink="http://www.w3.org/1999/xlink" x="0px" y="0px"
	 width="300px" height="300px" viewBox="0 0 300 300" enable-background="new 0 0 300 300" xml:space="preserve">
<path fill="#FFFFFF" d="M217.268,114.336h-25.92v-18.96H67.988v27.12h-38.88v7.92h40.08l0,0h6.72v-27.12h107.52v10.8v83.28h-58.08
	c-2.4-6.96-8.88-12.24-16.8-12.24s-14.4,5.04-16.8,12.24h-15.84v-11.04h-7.92v18.96h23.04c1.2,8.64,8.64,15.12,17.52,15.12
	s16.32-6.48,17.52-15.12h57.6h7.92h6.72c1.2,8.64,8.64,15.12,17.52,15.12s16.32-6.48,17.52-15.12h18.48v-52.08
	C251.108,129.696,237.908,114.336,217.268,114.336z M108.308,212.736c-5.28,0-9.6-4.32-9.6-9.6s4.32-9.6,9.6-9.6s9.6,4.32,9.6,9.6
	S113.588,212.736,108.308,212.736z M215.348,212.736c-5.28,0-9.6-4.32-9.6-9.6s4.32-9.6,9.6-9.6s9.6,4.32,9.6,9.6
	S220.628,212.736,215.348,212.736z M243.188,197.616h-11.04c-2.4-6.96-8.88-12.24-16.8-12.24c-7.68,0-14.4,5.04-16.8,12.24h-7.44
	v-75.36h25.92c16.08,0,25.92,12,25.92,31.2v44.16H243.188z M68.948,154.416h-33.84v-7.92h32.64v-8.16h7.92v16.08H68.948
	L68.948,154.416z M68.948,178.416h-28.08v-7.92h26.88v-8.16h7.92v16.08H68.948L68.948,178.416z"/>
</svg>
