<?xml version="1.0" encoding="utf-8"?>
<!-- Generator: Adobe Illustrator 17.0.0, SVG Export Plug-In . SVG Version: 6.00 Build 0)  -->
<!DOCTYPE svg PUBLIC "-//W3C//DTD SVG 1.1//EN" "http://www.w3.org/Graphics/SVG/1.1/DTD/svg11.dtd">
<svg version="1.1" id="Layer_1" xmlns="http://www.w3.org/2000/svg" xmlns:xlink="http://www.w3.org/1999/xlink" x="0px" y="0px"
	 width="300px" height="300px" viewBox="0 0 300 300" enable-background="new 0 0 300 300" xml:space="preserve">
<g>
	<path fill="#010101" d="M264.68,138.531l-36.558-57.905c-0.544-0.859-1.405-1.466-2.396-1.687
		c-0.995-0.218-2.029-0.036-2.887,0.511l-25.638,16.427c-1.765,1.131-2.286,3.474-1.167,5.247l2.188,3.465l-5.301,2.136
		c-0.511,0.209-1.07,0.259-1.611,0.144l-16.372-3.439c-9.442-1.984-19.036-2.094-28.528-0.333l-15.401,2.863
		c-4.217,0.784-8.072,2.756-11.17,5.64l-14.334-2.277c-0.179-0.029-0.353-0.074-0.521-0.135L73.689,81.985
		c-1.594-1.388-4-1.211-5.38,0.376c-1.383,1.589-1.214,3.997,0.375,5.379l31.713,27.57c0.228,0.199,0.482,0.37,0.749,0.509
		c0.993,0.514,2.056,0.864,3.16,1.04l9.881,1.57l-9.988,12.993c-1.703,2.217-2.436,4.964-2.063,7.735
		c0.372,2.77,1.808,5.224,4.035,6.911c3.193,2.417,7.553,2.782,11.106,0.925l27.894-14.582c0.882-0.464,1.959-0.412,2.803,0.131
		l60.013,38.895c1.326,0.86,2.237,2.186,2.56,3.735c0.325,1.548,0.022,3.13-0.849,4.449c-1.743,2.638-5.227,3.436-7.938,1.81
		l-32.456-19.422c-1.805-1.081-4.149-0.497-5.231,1.315c-1.083,1.806-0.494,4.149,1.313,5.23l25.961,15.535
		c0.002,0.001,0.003,0.002,0.005,0.003l3.126,1.871c0.884,0.527,1.494,1.371,1.726,2.374c0.228,1.003,0.042,2.028-0.521,2.887
		c-1.962,2.981-5.951,3.973-9.077,2.269l-25.372-13.828c-1.845-1.012-4.166-0.329-5.174,1.523c-1.008,1.849-0.325,4.165,1.525,5.173
		l18.294,9.97l4.536,2.767c0.847,0.517,1.418,1.338,1.607,2.313c0.189,0.975-0.035,1.95-0.628,2.748
		c-0.052,0.072-0.104,0.146-0.154,0.224c-1.733,2.714-5.206,3.659-8.084,2.204l-19.644-9.973c-1.87-0.952-4.172-0.205-5.127,1.673
		c-0.954,1.878-0.203,4.174,1.676,5.127l16.343,8.298c-3.337,2.079-7.321,2.958-11.358,2.339l-14.762-2.258l1.047-1.502
		c3.337-4.786,2.418-11.437-2.091-15.143c-1.394-1.147-3.043-1.881-4.778-2.257c1.362-4.678-0.077-9.922-4.033-13.125
		c-2.095-1.695-4.69-2.625-7.352-2.722c0.048-1.007,0.014-2.022-0.189-3.037c-0.658-3.294-2.572-6.117-5.388-7.948
		c-5.556-3.615-13.09-2.132-16.888,3.279c-0.976-1.466-2.252-2.742-3.839-3.722c-4.847-2.99-11.007-2.201-14.957,1.632
		l-13.912-18.344c-0.449-0.591-1.061-1.039-1.758-1.289l-28.319-10.095c-1.994-0.704-4.166,0.328-4.874,2.311
		c-0.708,1.985,0.328,4.166,2.311,4.874l27.249,9.713l14.566,19.207l-4.042,5.778c-3.839,5.488-2.52,13.113,2.93,16.995l0.213,0.152
		c2.05,1.459,4.435,2.223,6.891,2.261c-0.002,3.911,1.82,7.771,5.231,10.172c0.033,0.022,0.064,0.046,0.099,0.068
		c2.093,1.449,4.524,2.204,7.016,2.204c0.743,0,1.492-0.067,2.237-0.203c0.693-0.125,1.353-0.336,2.001-0.57
		c1.057,2.748,3.012,5.081,5.639,6.494c1.867,1.004,3.883,1.486,5.875,1.486c1.884,0,3.741-0.444,5.432-1.271
		c1.218,2.272,3.168,4.075,5.607,5.083c1.418,0.583,2.885,0.864,4.332,0.864c3.399,0,6.663-1.566,8.843-4.38l18.508,2.831
		c1.254,0.191,2.505,0.285,3.747,0.285c6.386,0,12.469-2.516,17.05-7.048c0.438,0.042,0.876,0.076,1.313,0.076
		c4.546,0,8.951-2.249,11.595-6.306c1.409-1.945,2.115-4.293,2.086-6.668c0.056,0.001,0.112,0.011,0.168,0.011
		c4.765,0,9.442-2.327,12.203-6.525c1.117-1.695,1.689-3.611,1.802-5.575c0.31,0.021,0.621,0.061,0.932,0.061
		c4.392,0,8.68-2.148,11.277-6.08c2.001-3.031,2.694-6.659,1.949-10.215c-0.1-0.479-0.284-0.92-0.432-1.379l14.621-13.817
		l0.39,0.618c0.544,0.859,1.405,1.466,2.396,1.687c0.275,0.061,0.554,0.09,0.829,0.09c0.722,0,1.438-0.206,2.058-0.602
		l25.638-16.427C265.279,142.648,265.801,140.303,264.68,138.531z M80.397,190.187c-2.058-1.465-2.555-4.342-1.108-6.412
		l7.262-10.383c0.886-1.268,2.302-1.96,3.772-1.96c0.856,0,1.728,0.234,2.525,0.726c1.085,0.671,1.83,1.724,2.095,2.968
		c0.244,1.138,0.037,2.285-0.545,3.279l-7.631,11.173c-0.689,0.804-1.611,1.358-2.668,1.546c-1.227,0.216-2.473-0.061-3.488-0.784
		L80.397,190.187z M96.297,203.549c-1.276,0.232-2.54-0.053-3.585-0.79c-0.025-0.017-0.052-0.036-0.08-0.053
		c-2.066-1.504-2.577-4.418-1.132-6.535l1.555-2.277c0.105-0.14,0.234-0.253,0.334-0.398c2.255-3.294,4.919-7.211,7.173-10.535
		c0.061-0.09,0.094-0.19,0.152-0.281l6.095-8.923c1.45-2.12,4.373-2.713,6.528-1.305c1.083,0.704,1.818,1.788,2.071,3.053
		c0.253,1.266-0.008,2.551-0.735,3.618l-2.108,3.091c-0.041,0.058-0.096,0.102-0.137,0.16l-11.471,16.671
		c-0.203,0.295-0.332,0.626-0.508,0.935l-1.07,1.568C98.656,202.608,97.561,203.319,96.297,203.549z M108.902,210.259
		c-1.207-0.649-2.048-1.74-2.368-3.072c-0.24-0.99-0.16-1.991,0.213-2.903l12.116-17.767c0.759-0.995,1.838-1.651,3.087-1.833
		c0.234-0.033,0.467-0.051,0.7-0.051c1.08,0,2.118,0.366,2.977,1.061c1.919,1.554,2.327,4.365,0.929,6.4l-3.449,5.017
		c-0.08,0.107-0.184,0.192-0.261,0.302l-5.586,8.02c-0.191,0.275-0.306,0.582-0.47,0.869l-1.697,2.468
		C113.712,210.773,111.05,211.417,108.902,210.259z M125.118,215.226c-1.023-0.422-1.79-1.274-2.101-2.336
		c-0.23-0.778-0.187-1.593,0.099-2.33l6.261-9.105c0.574-0.652,1.337-1.084,2.211-1.205c0.171-0.024,0.34-0.036,0.509-0.036
		c0.837,0,1.639,0.287,2.302,0.831c1.455,1.196,1.75,3.342,0.673,4.888l-5.586,8.016
		C128.502,215.355,126.707,215.881,125.118,215.226z M213.194,165.88c-0.354-0.282-0.676-0.596-1.061-0.844l-60.013-38.895
		c-3.148-2.042-7.166-2.225-10.485-0.49l-27.894,14.582c-0.944,0.495-2.11,0.401-2.967-0.248c-0.596-0.451-0.979-1.106-1.077-1.847
		c-0.102-0.741,0.094-1.475,0.552-2.068l13.127-17.076c2.227-2.899,5.435-4.863,9.03-5.532l15.401-2.863
		c8.499-1.578,17.1-1.479,25.563,0.298l16.374,3.44c2.029,0.426,4.117,0.24,6.031-0.535l6.586-2.655l25.691,40.693L213.194,165.88z
		 M236.992,151.712l-32.485-51.456l19.217-12.312l32.485,51.456L236.992,151.712z"/>
	<path fill="#010101" d="M215.739,99.86c-0.712,0.712-1.12,1.705-1.12,2.695c0,0.254,0.025,0.509,0.077,0.737
		c0.049,0.254,0.127,0.483,0.228,0.712c0.077,0.228,0.203,0.457,0.33,0.661c0.154,0.203,0.306,0.407,0.484,0.585
		c0.712,0.712,1.678,1.118,2.694,1.118c0.256,0,0.509-0.025,0.737-0.076c0.256-0.051,0.484-0.128,0.712-0.23
		c0.228-0.076,0.457-0.203,0.661-0.33c0.203-0.152,0.407-0.306,0.586-0.483c0.176-0.178,0.33-0.381,0.482-0.585
		c0.127-0.203,0.256-0.432,0.357-0.661c0.074-0.23,0.152-0.458,0.203-0.712c0.049-0.228,0.074-0.483,0.074-0.737
		c0-1.017-0.407-1.982-1.117-2.695C219.704,98.436,217.162,98.436,215.739,99.86z"/>
</g>
</svg>
