<?xml version="1.0" encoding="utf-8"?>
<!-- Generator: Adobe Illustrator 17.0.0, SVG Export Plug-In . SVG Version: 6.00 Build 0)  -->
<!DOCTYPE svg PUBLIC "-//W3C//DTD SVG 1.1//EN" "http://www.w3.org/Graphics/SVG/1.1/DTD/svg11.dtd">
<svg version="1.1" id="Layer_1" xmlns="http://www.w3.org/2000/svg" xmlns:xlink="http://www.w3.org/1999/xlink" x="0px" y="0px"
	 width="300px" height="300px" viewBox="0 0 300 300" enable-background="new 0 0 300 300" xml:space="preserve">
<g>
	<path fill="#010101" d="M235.519,184.292v-12.355h-5.966v-8.948c0-4.933-4.015-8.948-8.948-8.948h-3.284
		c0.196-0.963,0.301-1.962,0.301-2.983c0-8.337-2.756-16.599-7.758-23.266l-4.05-5.405l-14.314,17.174
		c-1.459,1.754-3.505,2.872-5.766,3.153l-8.74,1.094c-7.445,0.931-13.061,7.293-13.061,14.798v1.948
		c-3.463,1.235-5.966,4.516-5.966,8.4v2.983h-5.966v12.355c-1.396,0.364-2.696,0.946-3.848,1.751
		c0.57-7.699,0.865-15.415,0.865-23.114c0-17.944-1.557-36.002-4.632-53.684l-6.484-37.273c-0.746-4.295-4.453-7.415-8.817-7.415
		H79.469c-4.364,0-8.071,3.12-8.817,7.415l-6.485,37.273c-3.075,17.679-4.632,35.74-4.632,53.681c0,20.017,1.936,40.133,5.76,59.799
		l3.797,19.523c0.817,4.197,4.51,7.242,8.781,7.242h52.804c4.275,0,7.967-3.046,8.781-7.239l3.594-18.463v10.789v2.983
		c0,6.58,5.352,11.931,11.931,11.931h77.552c6.58,0,11.931-5.352,11.931-11.931v-2.983v-35.793v-2.983
		C244.467,190.254,240.652,185.625,235.519,184.292z M163.932,168.954c0-1.646,1.336-2.983,2.983-2.983h14.914v-5.966h-11.931
		v-1.399c0-4.504,3.371-8.319,7.839-8.88l8.737-1.094c3.767-0.465,7.179-2.33,9.613-5.25l9.477-11.374
		c3.934,5.527,6.094,12.26,6.094,19.048c0,4.933-4.015,8.948-8.948,8.948h-5.966v5.966h5.966c4.895,0,9.211-2.404,11.931-6.058
		v0.092h5.966c1.646,0,2.983,1.336,2.983,2.983v8.948h-59.656L163.932,168.954L163.932,168.954z M157.967,177.903h71.587v5.966
		h-71.587V177.903z M149.018,204.748h89.483v23.862h-89.483V204.748z M65.5,162.927c0-4.946,0.152-9.897,0.391-14.851h76.768
		c0.242,4.955,0.394,9.906,0.394,14.851c0,4.987-0.126,9.983-0.37,14.977H65.87C65.626,172.91,65.5,167.916,65.5,162.927z
		 M79.469,70.522h49.618c1.456,0,2.691,1.041,2.938,2.47l1.643,9.461h-20.444v5.966c0,1.646-1.336,2.983-2.983,2.983H98.311
		c-1.647,0-2.983-1.336-2.983-2.983v-5.966H74.885l1.647-9.461C76.775,71.564,78.01,70.522,79.469,70.522z M73.846,88.419h15.517
		c0,4.933,4.015,8.948,8.948,8.948h11.931c4.933,0,8.948-4.015,8.948-8.948h15.516l3.8,21.846
		c1.829,10.511,3.039,21.166,3.767,31.844H66.278c0.725-10.678,1.939-21.33,3.767-31.841L73.846,88.419z M137.404,221.586
		l-3.797,19.528c-0.271,1.396-1.503,2.41-2.926,2.41H77.873c-1.425,0-2.657-1.014-2.926-2.416l-3.797-19.523
		c-2.419-12.435-4.053-25.055-4.922-37.717h76.094C141.457,196.53,139.823,209.15,137.404,221.586z M238.502,237.558
		c0,3.29-2.676,5.966-5.966,5.966h-77.552c-3.29,0-5.966-2.676-5.966-5.966v-2.983h89.483V237.558z M149.018,198.782v-2.983
		c0-3.29,2.676-5.966,5.966-5.966h77.552c3.29,0,5.966,2.676,5.966,5.966v2.983H149.018z"/>
	<path fill="#010101" d="M193.76,219.662c-1.646,0-2.983-1.336-2.983-2.983s1.336-2.983,2.983-2.983
		c1.071,0,2.037,0.558,2.577,1.486l5.157-3.007c-1.599-2.741-4.564-4.445-7.735-4.445c-4.933,0-8.948,4.015-8.948,8.948
		s4.015,8.948,8.948,8.948c3.177,0,6.148-1.709,7.746-4.465l-5.157-2.995C195.812,219.089,194.819,219.662,193.76,219.662z"/>
	<polygon fill="#010101" points="95.328,154.04 89.363,154.04 89.363,171.937 95.328,171.937 95.328,165.971 107.259,165.971 
		107.259,160.006 95.328,160.006 	"/>
	<rect x="113.225" y="154.04" fill="#010101" width="5.966" height="17.897"/>
	<rect x="205.691" y="213.696" fill="#010101" width="5.966" height="5.966"/>
	<rect x="172.881" y="213.696" fill="#010101" width="5.966" height="5.966"/>
	<rect x="125.156" y="154.04" fill="#010101" width="5.966" height="5.966"/>
	<rect x="125.156" y="165.971" fill="#010101" width="5.966" height="5.966"/>
	<rect x="77.432" y="154.04" fill="#010101" width="5.966" height="5.966"/>
	<rect x="77.432" y="165.971" fill="#010101" width="5.966" height="5.966"/>
</g>
</svg>
