<?xml version="1.0" encoding="utf-8"?>
<!-- Generator: Adobe Illustrator 16.0.0, SVG Export Plug-In . SVG Version: 6.00 Build 0)  -->
<!DOCTYPE svg PUBLIC "-//W3C//DTD SVG 1.1//EN" "http://www.w3.org/Graphics/SVG/1.1/DTD/svg11.dtd">
<svg version="1.1" id="Layer_1" xmlns="http://www.w3.org/2000/svg" xmlns:xlink="http://www.w3.org/1999/xlink" x="0px" y="0px"
	 width="20px" height="20px" viewBox="0 0 20 20" enable-background="new 0 0 20 20" xml:space="preserve">
<path display="none" fill="#FFFFFF" d="M19.241,15.35c0.04,0.302-0.053,0.562-0.273,0.784l-2.607,2.587
	c-0.117,0.132-0.272,0.242-0.462,0.334c-0.189,0.091-0.375,0.149-0.559,0.176c-0.012,0-0.052,0.004-0.117,0.011
	c-0.065,0.006-0.15,0.01-0.255,0.01c-0.248,0-0.649-0.043-1.204-0.127c-0.556-0.085-1.235-0.296-2.04-0.628
	c-0.803-0.334-1.714-0.834-2.734-1.499c-1.019-0.667-2.104-1.582-3.254-2.744c-0.915-0.903-1.673-1.765-2.273-2.588
	s-1.084-1.584-1.451-2.284c-0.366-0.699-0.64-1.333-0.823-1.902C1.005,6.912,0.882,6.422,0.817,6.01
	C0.751,5.599,0.725,5.275,0.738,5.04c0.013-0.235,0.02-0.366,0.02-0.392c0.026-0.183,0.084-0.369,0.175-0.559
	c0.092-0.19,0.204-0.343,0.334-0.461l2.607-2.607c0.183-0.183,0.391-0.274,0.626-0.274c0.17,0,0.32,0.049,0.451,0.147
	c0.131,0.098,0.242,0.219,0.334,0.362l2.097,3.98C7.5,5.444,7.533,5.673,7.479,5.922C7.429,6.17,7.318,6.379,7.147,6.549L6.188,7.51
	C6.161,7.536,6.138,7.578,6.118,7.637s-0.03,0.108-0.03,0.147c0.052,0.274,0.17,0.588,0.354,0.94
	C6.599,9.038,6.84,9.421,7.166,9.871c0.328,0.451,0.792,0.971,1.392,1.559c0.589,0.602,1.111,1.068,1.569,1.401
	c0.457,0.333,0.84,0.578,1.146,0.734c0.309,0.158,0.543,0.253,0.707,0.285l0.244,0.048c0.026,0,0.069-0.009,0.127-0.028
	c0.06-0.02,0.103-0.042,0.127-0.068l1.119-1.137c0.235-0.209,0.509-0.313,0.822-0.313c0.222,0,0.399,0.039,0.529,0.117h0.02
	l3.783,2.234C19.025,14.872,19.188,15.088,19.241,15.35z"/>
<g>
	<path fill="#FFFFFF" d="M10.06,12.229l-2.268-1.984L1.31,15.802c0.235,0.22,0.552,0.355,0.904,0.355h15.693
		c0.35,0,0.668-0.136,0.899-0.355l-6.479-5.556L10.06,12.229z"/>
	<path fill="#FFFFFF" d="M18.812,3.42c-0.235-0.22-0.553-0.355-0.904-0.355H2.214c-0.35,0-0.667,0.136-0.902,0.358l8.748,7.498
		L18.812,3.42z"/>
	<polygon fill="#FFFFFF" points="0.895,4.214 0.895,15.091 7.223,9.715 	"/>
	<polygon fill="#FFFFFF" points="12.897,9.715 19.225,15.091 19.225,4.21 	"/>
</g>
</svg>
