<?xml version="1.0" standalone="no"?>
<!DOCTYPE svg PUBLIC "-//W3C//DTD SVG 20010904//EN"
 "http://www.w3.org/TR/2001/REC-SVG-20010904/DTD/svg10.dtd">
<svg version="1.0" xmlns="http://www.w3.org/2000/svg"
 width="298.000000pt" height="300.000000pt" viewBox="0 0 298.000000 300.000000"
 preserveAspectRatio="xMidYMid meet">

<g transform="translate(0.000000,300.000000) scale(0.100000,-0.100000)"
fill="#000000" stroke="none">
<path d="M809 2589 c-14 -27 -5 -87 26 -179 23 -67 94 -214 101 -207 2 1 -3
25 -12 52 -13 46 -44 213 -44 243 0 21 20 13 97 -40 170 -118 238 -206 309
-400 61 -168 77 -183 224 -208 46 -8 81 -22 118 -47 68 -46 181 -168 217 -234
24 -45 26 -53 14 -81 -15 -38 -63 -68 -108 -68 -18 0 -60 -7 -93 -15 l-59 -16
-100 34 c-54 19 -99 33 -99 31 0 -2 14 -11 32 -20 18 -9 54 -33 80 -52 l48
-36 0 -66 c0 -55 -14 -123 -47 -222 -4 -15 1 -18 28 -18 19 0 39 4 45 8 20 13
46 107 51 189 l6 82 49 10 c27 6 62 11 79 11 72 0 162 77 174 150 11 65 -36
149 -147 265 -107 112 -161 150 -236 166 -147 30 -151 32 -178 106 -58 159
-78 204 -112 256 -77 117 -200 221 -349 296 -73 36 -98 39 -114 10z"/>
<path d="M1395 2383 c-22 -2 -50 -6 -62 -8 l-22 -5 27 -45 27 -44 86 -1 c303
-1 567 -201 645 -491 21 -78 24 -242 5 -319 -54 -226 -237 -417 -461 -485 -83
-25 -230 -30 -320 -11 -188 39 -366 177 -448 346 -23 47 -49 112 -57 145 -18
70 -20 222 -4 297 11 52 67 180 110 249 l23 36 -28 36 c-16 20 -32 37 -36 37
-5 0 -31 -33 -57 -73 -254 -379 -123 -894 279 -1103 120 -62 216 -85 353 -85
221 0 401 76 551 233 178 186 250 434 198 686 -60 290 -289 523 -578 587 -70
15 -173 23 -231 18z"/>
<path d="M1135 2245 c10 -29 45 -197 45 -217 0 -24 -23 -23 -46 3 -10 11 -27
25 -37 31 -17 9 -18 8 -1 -24 18 -36 152 -173 161 -165 10 10 -20 152 -47 229
-16 42 -40 96 -55 120 -15 24 -24 34 -20 23z"/>
<path d="M1157 1803 c-8 -21 -18 -53 -22 -70 -8 -41 -27 -42 -129 -8 -90 30
-126 32 -126 8 0 -10 -3 -27 -6 -39 -5 -19 0 -22 38 -27 24 -3 66 -15 92 -27
33 -14 69 -20 121 -20 l72 0 7 43 c4 23 14 64 23 91 15 48 15 49 -8 67 -35 27
-45 24 -62 -18z"/>
<path d="M1542 1755 c-26 -32 -18 -62 22 -86 68 -42 109 -15 86 56 -19 58 -74
73 -108 30z m66 -18 c4 -20 -25 -34 -40 -19 -15 15 -1 44 19 40 10 -2 19 -11
21 -21z"/>
<path d="M453 1510 c-40 -24 -53 -48 -53 -100 0 -70 48 -131 70 -89 8 15 7 25
-5 41 -22 33 -18 64 11 87 54 42 121 10 111 -53 -4 -25 -1 -35 15 -45 27 -17
38 -1 38 52 0 102 -100 160 -187 107z"/>
<path d="M2285 1445 c-10 -42 -16 -78 -14 -79 6 -5 197 -46 213 -46 8 0 18 23
25 58 7 31 15 67 18 80 4 18 1 22 -20 22 -22 0 -27 -6 -37 -50 -12 -52 -16
-55 -38 -41 -10 6 -12 21 -7 55 7 46 7 48 -16 44 -19 -2 -25 -12 -32 -45 -9
-45 -13 -49 -36 -34 -11 7 -12 17 -3 52 6 24 10 44 9 45 -1 1 -12 5 -24 8 -20
6 -23 1 -38 -69z"/>
<path d="M562 1252 c-97 -50 -102 -54 -91 -75 7 -12 13 -23 14 -25 2 -2 21 6
44 18 49 24 53 13 16 -42 -22 -32 -23 -41 -13 -62 15 -35 23 -33 49 14 22 38
24 39 61 34 50 -8 78 15 78 63 0 30 -23 88 -47 118 -5 6 -47 -10 -111 -43z
m102 -38 c11 -29 6 -44 -14 -44 -29 0 -45 36 -23 49 25 14 30 13 37 -5z"/>
<path d="M2237 1287 c-17 -27 -57 -104 -57 -112 0 -5 195 -105 205 -105 2 0
21 31 40 70 35 69 35 69 14 80 -24 14 -21 16 -48 -37 -23 -45 -27 -48 -51 -33
-12 8 -11 15 7 54 19 38 20 45 7 50 -26 10 -30 7 -49 -34 -19 -42 -22 -45 -43
-31 -11 7 -10 16 7 49 26 50 25 49 2 61 -15 9 -22 6 -34 -12z"/>
<path d="M718 1047 c-32 -29 -62 -65 -68 -81 -15 -41 13 -95 62 -119 33 -16
40 -16 70 -4 18 8 57 39 86 69 52 54 53 54 32 73 -20 18 -21 17 -79 -38 -63
-60 -80 -67 -105 -41 -25 24 -20 36 44 99 56 55 59 60 43 77 -9 10 -19 18 -22
18 -3 -1 -32 -24 -63 -53z"/>
<path d="M2120 1083 c-14 -9 -40 -33 -57 -53 l-33 -37 86 -78 86 -78 20 21 20
20 -33 30 c-19 17 -31 34 -27 37 4 4 28 2 54 -4 45 -11 49 -11 72 12 l25 25
-57 12 c-51 10 -56 14 -56 38 0 33 -8 45 -37 61 -28 14 -33 14 -63 -6z m47
-59 c3 -8 -1 -23 -10 -31 -13 -14 -19 -14 -32 -3 -14 12 -14 15 1 31 21 23 33
24 41 3z"/>
<path d="M1936 925 c-27 -18 -53 -38 -59 -44 -7 -7 10 -40 52 -105 63 -94 63
-95 87 -79 24 16 24 19 -8 65 l-18 26 35 22 c39 24 37 22 29 44 -8 21 -24 20
-54 -4 -31 -24 -37 -25 -49 -1 -9 16 -4 23 29 45 36 23 39 28 28 46 -7 11 -15
20 -18 19 -3 0 -27 -15 -54 -34z"/>
<path d="M907 828 c-32 -55 -57 -101 -55 -102 23 -18 128 -76 136 -76 8 0 22
22 22 35 0 2 -20 16 -45 31 -39 23 -44 28 -33 43 7 9 13 17 14 19 1 2 20 -8
43 -22 40 -26 40 -26 51 -5 7 11 10 22 8 23 -2 1 -20 13 -40 25 -32 19 -36 25
-28 42 10 18 12 18 52 -7 40 -25 42 -26 55 -8 16 21 7 30 -74 76 l-48 26 -58
-100z"/>
<path d="M1122 719 c-18 -61 -32 -113 -30 -114 2 -2 33 -12 70 -23 66 -19 67
-19 73 -1 9 27 -1 37 -40 45 -19 3 -35 9 -35 13 0 3 11 42 25 86 25 82 24 89
-10 99 -18 5 -23 -6 -53 -105z"/>
<path d="M1711 811 c-16 -4 -28 -19 -38 -45 -7 -22 -15 -42 -18 -44 -2 -2 -16
10 -30 27 -26 31 -47 37 -80 25 -13 -6 -6 -17 38 -63 43 -43 57 -66 64 -101 8
-39 12 -45 33 -42 33 3 33 5 23 55 -9 38 -6 54 19 118 15 40 28 75 28 76 0 4
-10 2 -39 -6z"/>
<path d="M1290 765 c0 -20 6 -27 30 -32 l31 -6 -7 -87 c-7 -85 -6 -87 17 -93
13 -3 25 -4 28 -2 2 3 7 42 12 87 4 46 8 86 8 89 1 4 16 6 34 5 26 -1 33 3 35
21 3 20 -2 22 -65 27 -37 4 -80 9 -95 11 -24 4 -28 1 -28 -20z"/>
</g>
</svg>
